<svg xmlns:xlink="http://www.w3.org/1999/xlink" width="16" height="16" viewBox="0 0 16 16" fill="none" xmlns="http://www.w3.org/2000/svg">
<path d="M3.61466 8L1.80961 9.80455L0 8L1.80506 6.19546L3.61466 8ZM8.00227 3.61364L11.0986 6.70909L12.9037 4.90455L8.00227 0L3.09633 4.90455L4.90139 6.70909L8.00227 3.61364ZM14.1949 6.19546L12.3899 8L14.1949 9.80455L16 8L14.1949 6.19546ZM8.00227 12.3864L4.90594 9.29091L3.10088 11.0955L8.00227 16L12.9037 11.0955L11.0986 9.29091L8.00227 12.3864ZM8.00227 9.80455L9.80733 8L8.00227 6.19546L6.19267 8L8.00227 9.80455Z" fill="#F0B90B"/>
</svg>