<svg width="133" height="27" viewBox="0 0 133 27" fill="none" xmlns="http://www.w3.org/2000/svg"><path d="M6.04 13.345 3.02 16.36 0 13.345l3.02-3.014 3.02 3.014Zm7.327-7.32 5.173 5.169 3.02-3.014L13.367 0 5.174 8.18l3.019 3.014 5.174-5.168Zm10.35 4.306-3.02 3.014 3.02 3.014 3.016-3.014-3.016-3.014Zm-10.35 10.333L8.193 15.5l-3.02 3.011 8.194 8.18 8.192-8.18L18.54 15.5l-5.173 5.165Zm0-4.305 3.019-3.014-3.02-3.014-3.018 3.014 3.019 3.014Zm31.862.29v-.042c0-1.966-1.044-2.949-2.745-3.596 1.045-.586 1.928-1.507 1.928-3.157v-.042c0-2.3-1.844-3.786-4.84-3.786h-6.8v14.638h6.973c3.309 0 5.49-1.337 5.49-4.015h-.006Zm-4.022-6.258c0 1.087-.9 1.549-2.324 1.549h-2.97V8.85h3.184c1.36 0 2.115.542 2.115 1.504l-.005.037Zm.818 5.856c0 1.088-.86 1.588-2.286 1.588h-3.826V14.62h3.727c1.656 0 2.39.608 2.39 1.59l-.005.037Zm9.982 4.417V6.026H48.77v14.638h3.236Zm17.338 0V6.026h-3.194v9.014l-6.868-9.014h-2.975v14.638h3.184v-9.306l7.098 9.306h2.755Zm17.867 0L80.918 5.922h-2.975l-6.281 14.742h3.288l1.345-3.283h6.2l1.34 3.283h3.377Zm-5.863-6.127h-3.907L79.39 9.79l1.959 4.746Zm21.238 6.127V6.026h-3.194v9.014l-6.871-9.014h-2.973v14.638h3.181v-9.306l7.102 9.306h2.755Zm16.649-2.362-2.05-2.07c-1.151 1.043-2.178 1.713-3.855 1.713-2.512 0-4.251-2.086-4.251-4.6v-.042c0-2.508 1.781-4.557 4.251-4.557 1.466 0 2.612.625 3.751 1.65l2.045-2.362c-1.361-1.338-3.014-2.258-5.78-2.258-4.502 0-7.644 3.408-7.644 7.561v.042c0 4.203 3.204 7.528 7.519 7.528 2.823.008 4.497-.996 6.004-2.605h.01ZM133 20.664v-2.868h-7.971v-3.08h6.913v-2.868h-6.913V8.892h7.856V6.023h-11.06v14.639l11.175.002Z" fill="#F0B90B"/></svg>